<svg width="288" height="288" viewBox="0 0 288 288" fill="none" xmlns="http://www.w3.org/2000/svg">
<path fill-rule="evenodd" clip-rule="evenodd" d="M0.881592 148.996V139.004H49.0775V148.996H0.881592ZM46.1387 248.62L39.0857 241.861L73.1755 207.771L79.9347 214.824L46.1387 248.62ZM80.2285 73.1755L73.1755 79.9347L39.3796 46.1387L46.1387 39.0857L80.2285 73.1755ZM227.167 144C227.167 189.845 189.551 227.167 144 227.167C98.4489 227.167 60.8326 189.845 60.8326 144C60.8326 98.1551 98.4489 60.8326 144 60.8326C189.551 60.8326 227.167 98.1551 227.167 144ZM144 70.8244C104.326 70.8244 71.7061 103.739 71.7061 144C71.7061 184.261 104.62 217.175 144 217.175C183.38 217.175 216.294 184.261 216.294 144C216.294 103.739 183.673 70.8244 144 70.8244ZM149.29 48.7836H139.298V0.881592H149.29V48.7836ZM149.29 287.118H139.298V239.216H149.29V287.118ZM214.824 79.9347L207.771 73.1755L241.861 39.0857L248.62 46.1387L214.824 79.9347ZM248.914 241.861L241.861 248.62L208.065 214.824L214.824 207.771L248.914 241.861ZM239.216 148.996V139.004H287.412V148.996H239.216Z" fill="white"/>
</svg>
