<svg xmlns="http://www.w3.org/2000/svg" xmlns:xlink="http://www.w3.org/1999/xlink" viewBox="0 0 76.15 40.15" fill="#fff" fill-rule="evenodd" stroke="#000" stroke-linecap="round" stroke-linejoin="round"><use xlink:href="#A" x=".075" y=".075"/><symbol id="A" overflow="visible"><path d="M17.538 19.5l.81-.165c.54-.09 1.335-.225 2.355-.21s2.295.12 3.69.525c1.395.39 2.91 1.035 4.44 1.935 1.53.885 3.105 1.98 4.68 3.195l4.92 3.735c1.71 1.245 3.54 2.385 5.49 3.3s4.035 1.56 6.18 1.8c2.145.285 4.335.195 6.465-.195 2.055-.39 4.08-1.065 5.835-2.1 1.755-1.02 3.33-2.25 4.65-3.615a29.76 29.76 0 0 0 3.33-4.23c1.83-2.85 2.94-5.49 3.645-7.365l.99-3s-.015.285-.09.825l-.405 2.325c-.435 1.98-1.215 4.815-2.865 7.95-.825 1.56-1.845 3.21-3.195 4.77-1.335 1.575-2.97 3.06-4.92 4.26-1.935 1.215-4.155 2.13-6.54 2.58-2.325.45-4.785.6-7.2.3-2.43-.315-4.785-1.065-6.915-2.115-2.145-1.035-4.035-2.385-5.775-3.735l-4.77-4.05-4.26-3.45c-1.38-.96-2.715-1.725-3.975-2.235a14.45 14.45 0 0 0-3.405-.93c-.975-.12-1.77-.165-2.31-.15l-.855.045zM67.353 0c1.665 2.565 2.76 5.535 3.12 8.655s-.195 6.405-1.695 9.255c-1.47 2.88-3.765 5.25-6.315 7.125l-.975.69-1.02.645c-.75.45-1.485.78-2.28 1.095-1.575.585-3.285.885-4.965.885-3.39 0-6.57-1.11-9.435-2.445-2.865-1.365-5.505-3.015-8.115-4.62l-7.74-4.53c-2.58-1.32-5.265-2.34-7.89-2.49-.66-.03-1.305-.03-1.935.06l-.945.165-.24.045c-.03 0-.12.03-.075.015l-.135.045-.555.15c-1.365.39-2.685.84-3.93 1.44-2.505 1.2-4.725 2.895-6.24 5.085-1.53 2.175-2.34 4.8-2.265 7.425.015.66.105 1.305.24 1.965l.24.915c.09.3.21.6.33.87.51 1.125 1.275 2.07 2.265 2.745s2.205 1.065 3.45 1.17a6.87 6.87 0 0 0 1.845-.105l.435-.105c.06-.015.18-.06.18-.045l.27-.09.93-.375c1.185-.555 2.19-1.335 2.82-2.355s.915-2.28.87-3.615v-.255-.06c0 .015 0-.075 0 .03v-.03l-.015-.135-.06-.57c-.06-.285-.105-.555-.21-.87-.195-.6-.465-1.185-.84-1.68-.75-1.005-1.89-1.71-3.15-1.965-.645-.12-1.245-.135-1.98 0a6.65 6.65 0 0 0-1.92.6c-1.185.585-2.085 1.68-2.235 3.03v-.075c.015.69.105 1.38.39 1.995.27.615.735 1.125 1.335 1.41.6.3 1.35.36 2.025.165s1.32-.675 1.545-1.41c-.12.75-.72 1.38-1.44 1.695s-1.575.375-2.355.105c-.795-.255-1.455-.855-1.875-1.575-.435-.72-.63-1.53-.735-2.31v-.015-.06a4.68 4.68 0 0 1 .735-2.475c.48-.735 1.125-1.35 1.86-1.8s1.53-.75 2.355-.96c.75-.195 1.695-.315 2.565-.21 1.77.165 3.45 1.08 4.62 2.43.585.675 1.035 1.47 1.365 2.295.165.405.285.87.405 1.32l.105.57.03.135v.03l.015.105.015.075.03.315c.18 1.68-.075 3.57-.99 5.19-.915 1.635-2.37 2.85-3.915 3.645l-1.17.54-.27.105-.375.135-.66.195c-.885.225-1.785.3-2.685.285-1.8-.045-3.6-.54-5.175-1.545-1.575-.975-2.835-2.46-3.615-4.095-.195-.405-.375-.825-.525-1.245-.15-.39-.3-.945-.375-1.29a16.03 16.03 0 0 1-.39-2.565c-.24-3.48.825-6.99 2.79-9.81 1.95-2.85 4.725-4.98 7.695-6.435 1.485-.735 3.045-1.305 4.62-1.725l.555-.15.135-.03.195-.045.33-.075c.435-.09.87-.15 1.305-.21.885-.105 1.755-.105 2.625-.06 3.495.24 6.6 1.545 9.42 3 2.835 1.47 5.385 3.21 7.935 4.875 2.535 1.68 5.04 3.33 7.65 4.665 2.58 1.35 5.28 2.4 8.01 2.535 1.365.075 2.715-.105 4.02-.495a12.4 12.4 0 0 0 1.89-.75c.285-.135.69-.375.945-.525l.93-.585c2.46-1.575 4.605-3.585 6.135-6.045 1.545-2.445 2.265-5.37 2.235-8.34-.045-2.91-.75-5.925-2.1-8.67zM1.728 15.675s.66-.84 1.86-2.265c.585-.72 1.44-1.5 2.34-2.445.45-.48 1.02-.9 1.575-1.38l.87-.735a28.29 28.29 0 0 1 .99-.675c.345-.225.69-.465 1.035-.705s.75-.42 1.14-.63.795-.405 1.2-.615l1.32-.48c.885-.375 1.86-.51 2.835-.75.495-.075 1.005-.105 1.515-.15.255-.015.51-.06.78-.045l.78.03c1.05 0 2.1.195 3.165.375l1.56.42c.525.12 1.02.36 1.53.54 2.025.78 3.975 1.785 5.82 2.91s3.615 2.34 5.355 3.525c1.74 1.17 3.42 2.355 5.1 3.375 1.695 1.005 3.345 1.905 5.01 2.55.42.165.825.27 1.245.42.21.06.405.135.615.195l.615.135c.405.075.795.21 1.2.24.405.045.795.075 1.17.105.39.06.765 0 1.125 0 .36-.015.735-.015 1.08-.06.69-.135 1.365-.195 1.965-.375.6-.195 1.17-.36 1.695-.555l1.38-.66c.42-.18.765-.42 1.08-.6l.78-.48.66-.405-.6.48c-.195.165-.435.345-.72.585s-.6.495-1.02.72l-1.335.81c-.51.255-1.095.48-1.695.75-.615.255-1.32.39-2.04.6-.36.075-.75.105-1.155.15-.39.03-.795.12-1.215.09-1.665.045-3.45-.3-5.265-.855-1.8-.6-3.585-1.455-5.355-2.46-1.755-1.02-3.525-2.13-5.265-3.3s-3.51-2.34-5.31-3.42c-1.785-1.11-3.63-2.07-5.52-2.82-.93-.39-1.905-.66-2.85-.945-.96-.18-1.905-.405-2.865-.42l-.705-.06c-.24-.015-.465.015-.705.03-.465.03-.93.03-1.38.075-.9.18-1.8.255-2.625.57l-1.245.39-1.17.525c-.375.18-.78.315-1.125.525s-.69.405-1.035.6-.675.39-.99.585a33.52 33.52 0 0 1-.9.645c-.585.42-1.17.78-1.65 1.2-.975.84-1.875 1.515-2.535 2.19l-2.115 1.95z" stroke="none" fill="#6dcff6" fill-rule="nonzero"/></symbol></svg>